<svg width="188" height="188" viewBox="0 0 188 188" fill="none" xmlns="http://www.w3.org/2000/svg">
<g clip-path="url(#clip0_121_59977)">
<path fill-rule="evenodd" clip-rule="evenodd" d="M96.2381 75.9897V86.1182C96.2381 91.651 91.7508 96.1202 86.224 96.1202H76.0831C70.5563 96.1202 66.0689 91.6383 66.0689 86.1182C66.0689 82.5226 66.0689 78.9396 66.1703 75.344C66.1796 75.0061 66.2015 74.6668 66.2234 74.3272C66.2918 73.267 66.3604 72.2047 66.0436 71.1786C65.6253 69.8239 64.9408 68.6844 64.2309 67.545C63.0267 65.5952 61.1506 64.0759 58.9703 63.3669C56.872 62.6917 54.573 62.8668 52.3218 63.0382C51.3227 63.1143 50.333 63.1897 49.3745 63.1897H43.1125C40.9448 63.1897 38.9293 62.506 37.2941 61.3285C34.7589 59.5181 33.0983 56.5428 33.0983 53.1877C33.0983 50.988 33.1556 48.7883 33.2128 46.5904V46.5903L33.2129 46.5901C33.2666 44.5248 33.3204 42.4611 33.3265 40.4004C33.3265 36.9693 32.0082 33.7788 29.1307 31.7278C26.3715 29.7622 23.2958 29.9209 20.1698 30.0822H20.1697C19.3894 30.1225 18.606 30.1629 17.8236 30.1705C16.3397 30.185 14.8516 30.1664 13.3618 30.1478C12.2427 30.1338 11.1225 30.1199 10.0024 30.1199C4.47563 30.1199 -0.0117188 25.638 -0.0117188 20.1179V10.002C0.000957379 4.4819 4.48831 0 10.0151 0H20.156C25.6828 0 30.1701 4.4819 30.1701 10.002C30.1701 10.7861 30.173 11.5693 30.1758 12.3521V12.3524V12.3526C30.1833 14.4386 30.1909 16.5216 30.1448 18.6113C30.1316 19.2824 30.0855 19.9605 30.0393 20.6402V20.6403V20.6403C29.9085 22.5637 29.7769 24.5008 30.3856 26.3343C31.5265 29.8287 34.4674 32.0823 38.004 32.8546C39.7288 33.2268 41.4268 33.1702 43.1581 33.1126C43.488 33.1016 43.8191 33.0906 44.1519 33.0825C46.1805 33.0234 48.2035 33.0431 50.2247 33.0628H50.2247H50.2249C51.2347 33.0726 52.2441 33.0825 53.2534 33.0825C56.6125 33.0825 59.6041 34.741 61.4041 37.2858C62.583 38.9317 63.2675 40.9195 63.2675 43.0844C63.2675 45.9584 63.2422 48.8324 63.1915 51.7191C63.1827 52.3112 63.1534 52.9126 63.1238 53.5178C63.0244 55.5527 62.923 57.6308 63.5971 59.5434C64.7379 62.7845 67.6788 65.418 71.0887 66.0763C72.5654 66.3606 74.2107 66.2459 75.8055 66.1347L75.8057 66.1346C76.4833 66.0874 77.1518 66.0408 77.7944 66.0257C79.8948 65.9877 81.9952 65.9924 84.101 65.9972C84.8038 65.9988 85.5071 66.0004 86.2113 66.0004C91.7381 66.0004 96.2255 70.4823 96.2255 76.0023L96.2381 75.9897ZM91.0807 12.8503C90.4468 12.8884 89.8384 12.9264 89.2046 12.9898C89.813 12.9011 90.4468 12.8503 91.0807 12.8503ZM159.365 182.606C165.779 189.012 176.187 189.012 182.601 182.606H182.626C185.301 179.935 186.987 176.377 187.354 172.617C187.747 168.591 186.632 164.489 184.211 161.235C183.133 159.791 181.796 158.528 180.469 157.275C179.969 156.803 179.47 156.332 178.988 155.854C177.794 154.669 176.605 153.476 175.415 152.281C174.621 151.484 173.827 150.686 173.03 149.891L164.195 141.066C171.294 130.558 175.92 118.48 177.594 105.755C179.964 87.8026 176.326 69.5585 167.263 53.8719C158.186 38.1852 144.192 25.917 127.434 18.9916C115.886 14.2185 103.476 12.1548 91.1424 12.8638H91.0917C90.4579 12.9018 89.8494 12.9397 89.2156 13.003C89.1966 13.003 89.1744 13.0062 89.1522 13.0094C89.13 13.0125 89.1079 13.0157 89.0888 13.0157C82.7128 13.9906 77.8071 19.4094 77.655 26.0056V26.3221C77.655 27.0185 77.7057 27.7148 77.8198 28.3985C78.8339 34.9947 84.5888 39.6792 91.1804 39.7678C91.4263 39.7713 91.6722 39.7747 91.9181 39.7782C96.0847 39.8359 100.259 39.8938 104.389 40.5275C108.724 41.2111 112.971 42.4012 117.027 44.0725C128.258 48.7189 137.638 56.9357 143.71 67.4442C149.795 77.9652 152.229 90.1828 150.631 102.21C149.047 114.251 143.533 125.418 134.938 134.002C126.344 142.586 115.164 148.093 103.109 149.688C91.0663 151.271 78.8339 148.84 68.3 142.763C57.7788 136.698 49.552 127.329 44.8998 116.112C43.1632 111.921 41.9463 107.515 41.2871 103.033C40.8765 100.255 40.7784 97.4583 40.6803 94.6597C40.6179 92.8796 40.5554 91.0988 40.4125 89.3219C39.8928 82.4345 34.0871 76.8131 27.0772 76.8131H26.9885C26.38 76.8131 25.7716 76.8637 25.1631 76.9397C20.0927 77.6234 15.7447 81.257 14.1602 86.1187C13.7057 87.5155 13.6262 88.9979 13.5474 90.4675C13.5405 90.5964 13.5336 90.7252 13.5264 90.8538C13.425 92.6137 13.3997 94.3862 13.4377 96.146C13.5137 99.6784 13.8433 103.185 14.3377 106.68C15.3138 113.479 17.1391 120.151 19.7758 126.494C26.7096 143.231 38.9928 157.221 54.6985 166.274C70.4042 175.326 88.6705 178.96 106.645 176.592C118.878 174.984 130.527 170.667 140.757 164.033L158.884 182.138C159.048 182.29 159.213 182.441 159.365 182.606Z" fill="url(#paint0_linear_121_59977)"/>
</g>
<defs>
<linearGradient id="paint0_linear_121_59977" x1="-7.06632" y1="-7.94695" x2="91.4407" y2="254.346" gradientUnits="userSpaceOnUse">
<stop stop-color="#5434E4"/>
<stop offset="0.333333" stop-color="#8954F6"/>
<stop offset="0.666667" stop-color="#E27AF8"/>
<stop offset="1" stop-color="#F5C6FF"/>
</linearGradient>
<clipPath id="clip0_121_59977">
<rect width="187.404" height="187.404" fill="white"/>
</clipPath>
</defs>
</svg>
